<svg width="17" height="15" viewBox="0 0 17 15" fill="none" xmlns="http://www.w3.org/2000/svg">
<path d="M13.4583 13.75H3.54167C2.75926 13.75 2.125 13.1904 2.125 12.5V3.75C2.125 3.05964 2.75926 2.5 3.54167 2.5H4.95833V1.25H6.375V2.5H10.625V1.25H12.0417V2.5H13.4583C14.2407 2.5 14.875 3.05964 14.875 3.75V12.5C14.875 13.1904 14.2407 13.75 13.4583 13.75ZM3.54167 6.25V12.5H13.4583V6.25H3.54167ZM3.54167 3.75V5H13.4583V3.75H3.54167ZM12.0417 11.25H10.625V10H12.0417V11.25ZM9.20833 11.25H7.79167V10H9.20833V11.25ZM6.375 11.25H4.95833V10H6.375V11.25ZM12.0417 8.75H10.625V7.5H12.0417V8.75ZM9.20833 8.75H7.79167V7.5H9.20833V8.75ZM6.375 8.75H4.95833V7.5H6.375V8.75Z" fill="#EDF1F7"/>
</svg>
