<svg width="54" height="57" viewBox="0 0 54 57" fill="none" xmlns="http://www.w3.org/2000/svg">
<path d="M53.0516 22.028L46.2949 15.9892V6.33144C46.2949 5.24389 45.488 4.35897 44.4963 4.35897H40.2448C39.2531 4.35897 38.4461 5.24389 38.4461 6.33144V8.97401L29.4179 0.905003C28.7648 0.321512 27.9041 0 26.9943 0C26.0881 0 25.2314 0.31954 24.5819 0.899983L0.948405 22.0278C-0.125407 22.9873 -0.0609812 23.8231 0.0729387 24.2359C0.206532 24.6478 0.636743 25.3388 2.01617 25.3388H5.25232V53.1232C5.25232 55.1061 6.71939 56.719 8.52265 56.719H18.7424C20.5305 56.719 21.931 55.1394 21.931 53.1232V41.7293C21.931 40.7528 22.7494 39.8636 23.6479 39.8636H30.5156C31.3721 39.8636 32.069 40.7006 32.069 41.7293V53.1232C32.069 55.0723 33.6041 56.719 35.4211 56.719H45.4774C47.2806 56.719 48.7477 55.1059 48.7477 53.1232V25.3388H51.9838C53.3633 25.3388 53.7933 24.6478 53.9271 24.2359C54.061 23.8231 54.1254 22.9873 53.0516 22.028Z" fill="#D5A254"/>
</svg>
