<svg width="64" height="49" viewBox="0 0 64 49" fill="none" xmlns="http://www.w3.org/2000/svg">
<path d="M10.4 2.13615e-08H53.6C56.2564 -0.000166437 58.8123 0.972509 60.7431 2.71849C62.674 4.46448 63.8336 6.85141 63.984 9.38962L64 9.95312V39.0469C64.0002 41.5892 62.9838 44.0352 61.1594 45.8831C59.3351 47.731 56.841 48.8408 54.1888 48.9847L53.6 49H10.4C7.74356 49.0002 5.18775 48.0275 3.25686 46.2815C1.32597 44.5355 0.166396 42.1486 0.0160004 39.6104L2.23206e-08 39.0469V9.95312C-0.00017391 7.41083 1.01617 4.96484 2.84055 3.11692C4.66493 1.269 7.15902 0.159246 9.8112 0.0153129L10.4 2.13615e-08H53.6H10.4ZM59.2 16.4548L33.12 29.5929C32.8255 29.7418 32.5019 29.8304 32.1697 29.8531C31.8375 29.8758 31.504 29.832 31.1904 29.7246L30.8832 29.596L4.8 16.4579V39.0469C4.80005 40.3919 5.32855 41.6877 6.28058 42.6771C7.2326 43.6665 8.53856 44.2772 9.9392 44.3879L10.4 44.4062H53.6C55.0059 44.4061 56.3604 43.8999 57.3943 42.9882C58.4282 42.0764 59.0659 40.8258 59.1808 39.4848L59.2 39.0469V16.4548ZM53.6 4.59375H10.4C8.99459 4.5938 7.64058 5.09959 6.60675 6.01071C5.57291 6.92183 4.93485 8.17167 4.8192 9.51212L4.8 9.95312V11.2669L32 24.9655L59.2 11.2639V9.95312C59.1999 8.60762 58.6709 7.31138 57.7183 6.32189C56.7656 5.33241 55.4588 4.72207 54.0576 4.61213L53.6 4.59375Z" fill="#D4A254"/>
</svg>
