<svg width="32" height="38" viewBox="0 0 32 38" fill="none" xmlns="http://www.w3.org/2000/svg">
<path d="M23.6367 29.0547C25.6875 29.0547 27.0352 28.504 28.2188 27.168C28.3125 27.0743 28.4062 26.9688 28.4883 26.875C29.1914 26.0899 29.5195 25.3165 29.5195 24.5782C29.5195 23.7344 29.0273 22.9493 27.9844 22.2227L24.5742 19.8555C23.5195 19.129 22.2891 19.0469 21.3047 20.0196L20.4023 20.9219C20.1328 21.1915 19.8984 21.2032 19.6406 21.0391C19.0078 20.6407 17.7305 19.5274 16.8633 18.6602C15.9492 17.7579 15.0703 16.75 14.6016 16.0118C14.4492 15.7422 14.4609 15.5196 14.7305 15.25L15.6211 14.3477C16.6055 13.3633 16.5234 12.1211 15.7969 11.0782L13.4297 7.66802C12.7031 6.62505 11.918 6.14458 11.0742 6.13286C10.3359 6.12114 9.5625 6.46099 8.77734 7.16411C8.67188 7.25786 8.57812 7.33989 8.48438 7.42192C7.14844 8.61724 6.59766 9.96489 6.59766 11.9922C6.59766 15.3438 8.66016 19.4219 12.4453 23.2071C16.207 26.9688 20.2969 29.0547 23.6367 29.0547ZM23.6484 27.25C20.6602 27.3086 16.8281 25.0118 13.793 21.9883C10.7344 18.9415 8.33203 14.9805 8.39062 11.9922C8.41406 10.7032 8.87109 9.58989 9.78516 8.79302C9.86719 8.72271 9.92578 8.66411 10.0078 8.60552C10.3594 8.30083 10.7344 8.13677 11.0742 8.13677C11.4141 8.13677 11.7188 8.26567 11.9414 8.61724L14.2148 12.0274C14.4609 12.3907 14.4844 12.8008 14.1211 13.1641L13.0898 14.1954C12.2812 15.004 12.3398 15.9883 12.9258 16.7735C13.5938 17.6758 14.7539 18.9883 15.6562 19.879C16.5469 20.7813 17.9648 22.0469 18.8789 22.7266C19.6641 23.3125 20.6484 23.3711 21.457 22.5625L22.4883 21.5313C22.8516 21.168 23.25 21.1915 23.625 21.4258L27.0352 23.6993C27.3867 23.9336 27.5156 24.2266 27.5156 24.5782C27.5156 24.918 27.3516 25.293 27.0469 25.6446C26.9766 25.7266 26.9297 25.7852 26.8594 25.8672C26.0625 26.7813 24.9492 27.2266 23.6484 27.25Z" fill="#FAFAFA"/>
</svg>
