<svg width="50" height="50" viewBox="0 0 50 50" fill="none" xmlns="http://www.w3.org/2000/svg">
<g clip-path="url(#clip0_274_297)">
<path d="M49.4641 37.9185C47.6029 34.3999 41.1394 30.5847 40.8549 30.4178C40.0243 29.9451 39.1577 29.6948 38.3466 29.6948C37.1407 29.6948 36.1535 30.2473 35.5557 31.252C34.6102 32.3829 33.4376 33.7047 33.1531 33.9095C30.9507 35.4037 29.2266 35.2341 27.319 33.3265L16.6724 22.6789C14.7769 20.7834 14.6026 19.038 16.0866 16.8477C16.2942 16.5613 17.616 15.3878 18.7469 14.4414C19.468 14.0122 19.963 13.3745 20.1799 12.5922C20.4682 11.5513 20.2559 10.3268 19.5755 9.13384C19.4152 8.85947 15.5981 2.39512 12.0814 0.534788C11.4251 0.187193 10.6854 0.00366211 9.94389 0.00366211C8.72221 0.00366211 7.57283 0.4801 6.70894 1.34306L4.35641 3.69466C0.635746 7.4144 -0.711071 11.631 0.351181 16.2266C1.23732 20.0567 3.81972 24.1324 8.02794 28.3397L21.6583 41.97C26.9844 47.2961 32.0621 49.9972 36.7505 49.9972C36.7505 49.9972 36.7505 49.9972 36.7514 49.9972C40.1995 49.9972 43.4141 48.5317 46.3033 45.6425L48.6549 43.2909C50.0842 41.8625 50.4086 39.7028 49.4641 37.9185Z" fill="#D4A254"/>
</g>
<defs>
<clipPath id="clip0_274_297">
<rect width="50" height="50" fill="white"/>
</clipPath>
</defs>
</svg>
